<svg id="Layer_1" enable-background="new 0 0 38 38" height="512" viewBox="0 0 38 38" width="512" xmlns="http://www.w3.org/2000/svg"><g id="_x32_7"><g><g><g><g><g enable-background="new"><g><path d="m35 28.7821026c-.0675735.0945549-.0370712.0771523-.2054253.119112-3.5190659.0580978-12.0332355.0952969-14.4496231-.0287361.2218494-3.9195347.1972008-7.5925198-.0287628-11.0970917 1.1650314-.1727524 7.2966309-2.4302931 10.1233749-3.3854074.0287628-.0205622.3081379.0410748.341013.0205622.0081997-.0370121.1027126-.0616875.1109123-.09865 1.7132664 4.2481861 3.1224842 9.0387229 4.108511 14.470211z" fill="#656267"/></g><g><path d="m14.2746086 13.713376c-.5883322 3.0985785-1.2929907 6.0594721-2.1115599 8.9581823-.3158646-1.2680531-2.0840445 1.6842365-2.2199869.510788.9604797-2.8514194 3.3636618-10.0134001 4.1184855-13.2661915-.0342255 1.3052331.0390014 2.553875.2130613 3.7972212z" fill="#4f4c51"/></g><g><path d="m20.3455353 28.8718338c-.5967274-.1997223-.3305855-.0948296-.8929024-.3572865-.0972404-.0654793-.1941605-.1306629-.29076-.1950474-2.6968956-2.4295158-5.0618429-4.2252579-6.9849615-5.6566982.8131695-2.8949528 1.5135221-5.8508415 2.0989132-8.9437513 1.2012815 1.1341133 2.9251184 2.3297739 5.1004591 3.8525457.0752621.0438671.1510067.0881271.227232.1327858.4431171.0666771.2454319.0460358.7140388.0708561.2240238 3.5045872.2483577 7.1784115.0279808 11.0965958z" fill="#4f4c51"/></g><g><path d="m22.4741116 9.1319246c2.2480183 1.3559828 5.0228348 2.9185829 8.2340221 4.9833689.0473137.034668.1740723.1661625.1899796.1971169-.001852.0322466.0583115.0954428-.1160049.1521454-3.3034458 1.1236315-6.6820335 2.2093773-10.134758 3.2539997-.4260845.0776138-.2652473.0645561-.6993237.0504589-.1117153-.0250797-.2223721-.0225754-.3328648-.0468502-.0818825-.0374069-.1637344-.1013966-.2446518-.1381149-2.1748085-1.5295143-3.8972569-2.7306404-5.0959015-3.8706732-.1740599-1.2433462-.2472868-2.4919882-.2130613-3.7972212.0632095-.1391191.0995712-.1471262.2388239-.2187309.4447279-.0939302 4.4479618-.5380812 7.8551731-.6569977.1614475.0188283.165657.0125551.3185673.0914983z" fill="#7c7980"/></g></g></g></g><g><g><g enable-background="new"><g><path d="m20.3455353 28.8718338c-.5967274-.1997223-.3305855-.0948296-.8929024-.3572865-.0972404-.0654793-.1941605-.1306629-.29076-.1950474-2.6968956-2.4295158-5.0618429-4.2252579-6.9849615-5.6566982.8131695-2.8949528 1.5135221-5.8508415 2.0989132-8.9437513 1.2012815 1.1341133 2.9251184 2.3297739 5.1004591 3.8525457.0752621.0438671.1510067.0881271.227232.1327858.4431171.0666771.2454319.0460358.7140388.0708561.2240238 3.5045872.2483577 7.1784115.0279808 11.0965958z" fill="#4f4c51"/></g><g><path d="m14.2746086 13.713376c-.5883322 3.0985785-1.2929907 6.0594721-2.1115599 8.9581823-.3158646-1.2680531-2.0840445 1.6842365-2.2199869.510788.9604797-2.8514194 3.3636618-10.0134001 4.1184855-13.2661915-.0342255 1.3052331.0390014 2.553875.2130613 3.7972212z" fill="#34333a"/></g></g></g></g><path d="m24.7233696 10.4709549c-.1927967.120347-.6530972.4073877-.8533707.4924278-.9713802-.2061701-1.8900127-.425724-2.7287769-.6322432-.4860573.2332573-1.2111588.5020599-1.9225025.7543173-.0007591-.0185118-.0141182-.0114737-.0274734-.0053396-.4158707.1463156-.8280487.2936401-1.1955242.4034081 1.0714264-.5484028 2.1423874-1.1053314 3.2061081-1.5084028.7655926.1890087 1.9371662.4398308 2.6269569.7429295.2530308-.1081848.5060635-.2162704.7590961-.3244057.0450077.0256862.0901661.0515737.1354866.0773086z" fill="#4f4c51"/><path d="m24.0760002 10.8527861c-.0621166.0440044-.1360073.0774803-.2003822.1090765-.9788475-.196578-1.8942089-.4193983-2.7347069-.6262589-.4928474.2280359-1.2178135.4965935-1.9194775.7418518.671875-.3413258 1.3322906-.6435299 2.0040035-.8955812.7618217.201766 1.9521217.4614649 2.6367722.7570505.0737934-.0341463.1379948-.0652847.2137909-.0861387z" fill="#34333a"/><path d="m17.3067627 16.1183434c-.2458515 3.1366882-.6999989 6.2838078-1.3663578 9.4591808-.4782495-.3876057-.9414415-.7547646-1.3887081-1.1032104.0018988-.0057316.0037937-.0115623.0056887-.0173416.9712229-2.2472 2.4583902-8.5959425 2.3459845-8.6176395.9833069-.5691595 1.6011333-.9531965 2.249054-1.3706036-.5835153.560192-1.198948 1.1108178-1.8456613 1.6496143z" fill="#1e1e1c"/><path d="m17.1645222 15.9917173c-.2608967 3.1270189-.7284851 6.2585344-1.4057989 9.4123297-.4120579-.3305168-.8126917-.6458302-1.2013378-.9470749.9712229-2.2472 2.4583902-8.5959425 2.3459845-8.6176395.4646511-.2689495.9216671-.5408411 1.3709946-.8153076-.3589326.3262663-.728922.6489944-1.1098424.9676923z" fill="#34333a"/><path d="m25.4331303 28.9595737c-.6277847-.0349865-.2863293-.0256958-1.2879181-.0255451.2168999-1.6960964.3651218-3.3697834.444809-5.0167446.3069209 1.6074257.5902652 3.2843819.8431091 5.0422897z" fill="#4f4c51"/><path d="m25.4331303 28.9595737c-.1593761-.0088825-.3187504-.0178146-.4781284-.0267467-.0788517-1.7288857-.2019711-3.3989906-.3649807-5.015543.3069209 1.6074257.5902652 3.2843819.8431091 5.0422897z" fill="#34333a" opacity=".5"/><path d="m32.957634 28.928072c-.9696884-.0050201-.3238297-.008812-1.8462162.0219383-.0075359-2.8271217-.181179-5.5509109-.5161819-8.1580086.8583736 2.5087433 1.6537914 5.2097645 2.3623981 8.1360703z" fill="#4f4c51"/><path d="m32.957634 28.928072c-.2243614-.0011616-.4488258-.0024395-.6733818-.0038376-.4535046-2.8861599-1.0221672-5.5914593-1.6890163-8.1322327.8583736 2.5087433 1.6537914 5.2097645 2.3623981 8.1360703z" fill="#34333a" opacity=".5"/><path d="m17.8734131 10.0246019c-.0039616.0022373-.0079269.0044241-.0118885.006711-.6083012-.1917381-1.1572208-.3763418-1.6453152-.5614996.2940388-.0356636.6051655-.0635014.9284954-.092742.0790882-.0072755.1588993-.0144853.2394352-.021779.1581688.2267857.3129349.4406395.4892731.6693096z" fill="#fff"/><path d="m17.8734131 10.0246019c-.0039616.0022373-.0079269.0044241-.0118885.006711-.2593441-.2241869-.4900036-.4328022-.7168198-.6542416.0790882-.0072755.1588993-.0144853.2394352-.021779.1581688.2267857.3129349.4406395.4892731.6693096z" fill="#656267"/></g><g><path d="m25.3496666 14.5717096c-.1824684.2092686-.4893932.6370449-.7232552.8381519-.100668-.0617962-.0892715-.0484581-.3884315-.2383251 0 0-.0033302-.0041122-.0066833-.0041122-.6663361-.4108515-1.349432-.8627272-2.0258026-1.3147039-.2946644.172576-.7634544.328701-1.2422791.4519768-.0133877-.0164499-.0200901-.0164499-.0167389.0040627-.1020451.0238695-.2539902.073226-.8404617.172575.6228046-.4437513 1.2623692-.8792267 1.9722366-1.11339.7500477.5176764 1.7847061 1.1585779 2.4041805 1.6926537.2812576-.1848632.5725689-.336876.8672352-.4888889z" fill="#4f4c51"/><path d="m22.0782509 13.6760826c.6562824.4519262 1.530241.9983397 2.1530457 1.4913416-.6663361-.4108515-1.349432-.8627272-2.0258026-1.3147039-.2946644.172576-.7634544.328701-1.2422791.4519768-.0133877-.0164499-.0200901-.0164499-.0167389.0040627-.0703239.0164499-.14398.0369625-.2143059.0534124.4285908-.2793513.8705883-.5259019 1.3460808-.6860896z" fill="#25242a"/></g><path d="m16.6076565 15.625391-2.3330479-1.912015-.2347002-3.3084812c.4151068 2.140317 1.3313418 3.8258 2.5677481 5.2204962z" fill="#fff" opacity=".3"/><path d="m30.7805767 14.4639044c-1.0805397.3697758-2.1651917.7313271-3.2621574 1.0887651 2.4009304-.6757069 2.7383041-1.6324701.8792019-2.8882446.7395515.4559889 1.5119534.9367027 2.3090057 1.4502659.0493011.0369625.1766624.1684637.1930885.1972008-.0041122.0328502.0575238.0945377-.1191387.1520128z" fill="#fff" opacity=".3"/><path d="m21.9513931 28.9135532c-1.200449 0-1.2892838-.0247955-1.6064415-.0410748-.4909153-.1593742-.4788246-.1610184-.8175888-.3245888.3245621-4.4454365.788826-10.7725029.788826-10.7725029z" fill="#34333a"/><g fill="#25242a"><path d="m21.9513931 28.9135532c-.3697758 0-.7395515-.0082264-1.1093025-.0123386l-.5259018-11.1258278z"/><path d="m12.2306442 22.4303112c-.0205383.082201-.0410757.1602383-.0657253.2423878-.0164499-.0656986-.0328751-.1314487-.0493002-.1971989.0410748-.0164509.078063-.0328503.1150255-.0451889z"/><path d="m35 28.7821026c-.0675735.0945549-.0370712.0771523-.2054253.119112-.6121635.0082264-1.2243271.0205631-1.8364906.0205631v.0081749c-.4633522 0-.6881752-.0046062-1.8447189.0205631 0-.0041122 0-.0041122 0-.0082264-1.8858166.0164509-3.7798347.0205631-5.6820755.0041142v.0123367c-.1858273-.0206623-3.8022385-.0203495-5.086338-.0862617-.5450821-.17696-.4105988-.1373997-.8915405-.3574886-.0986004-.0657005-.1931133-.1314507-.2917118-.1972008-1.1339531-1.0189037-2.2103806-1.9350929-3.2210588-2.7485695v.0082245c-.4766006-.3861752-.9408646-.7560024-1.3886786-1.1010513 0-.0041142 0-.0041142 0-.0082264-.8504648-.6656265-1.643404-1.2613411-2.3747311-1.8036919.0205383-.0780373.045188-.1601868.0657511-.2382755.1930876-.0616379.3862009-.1108875.571063-.1396751.8381529-.1437874 1.7255793-.2793503 2.5513945-.1684628 1.8098536.2206573 2.4298601 1.5774879 3.5702963 2.5924931 1.5616264 1.3912716 3.7615623 1.5779266 4.4659481 1.1216164.9901409-.6491261.4560394-2.4897308 1.4667416-3.1060085.3040257-.1849117.6820011-.201313 1.0394402-.217762 1.6475163-.0903759 3.5374451-.5423527 4.2564354-2.0255184.8134766-1.6844788-.328701-3.5990582-.7189903-5.4273252-.0082245-.045188-.0205612-.0863132-.0246487-.1314507v-.0041122c.4560375-.1479502.9079647-.3040257 1.3599148-.456089.1068249-.0328503.1273632-.0698128.1273632-.1027126 1.7091291 4.2358978 3.1101454 9.0099838 4.0920599 14.4209106z" opacity=".2"/></g></g><path d="m24.3712864 28.9381771c-.0041122.0041122-.0081997.0041122-.0164242 0-.8011646-.0041122-1.6023293-.0123367-2.4034691-.0246239-1.2421112 0-1.1803761-.0192051-1.6064415-.0410748-.8003368-.2598267-.8821125-.353878-1.1832523-.5546894-1.1339531-1.0189037-2.2103806-1.9350929-3.2210588-2.7485695v.0082245c-.2547255-.2054253-.5053635-.4108505-.7559767-.6039391 0 0 .0041122-.0041122.0041122-.0082245.0041122-.0041122.0041122-.0041122.0041122-.0082245.5836964-.9904842 1.0130711-1.6553326 1.101078-1.7954178.1034908.0741329 3.6747723 2.6323452 3.4470463 2.4692192l.7189884.5094509.2588387.1889763c.1000996.0715523 3.6707993 2.6239414 3.4429092 2.4610424l.2013378.1437378z" fill="#25242a" opacity=".5"/><g><g><g><g><g enable-background="new"><g><path d="m19.0950069 28.887516c-.0140514.0114098-.0281048.0228195-.0421581.0326157-.4216728.0612316-7.5849037.0310402-8.8864031.0195751-.2558346 0-.5144663-.0032654-.7703009-.0048981-.1096258-.0032463-.2192698-.0081444-.3289127-.0114117.1518021-1.5562038.1349344-3.0145168-.019681-4.4059639.7972775-.0685997 5.0073633-.9677849 6.92696-1.3441372.019681-.0081635.210845.0163097.2333403.0081654.0056095-.0146961.0702801-.0244923.0758915-.0391693 1.1723099 1.6866913 2.1365719 3.5887165 2.811264 5.745224z" fill="#656267"/></g><g><path d="m4.9135752 22.9046593c-.4025688 1.2302532-.8784742 2.4056149-1.4385839 3.5565109-.2161317-.5034637-.3819723-.9777317-.4749913-1.4436359.6572123-1.1321201 1.251296-2.3290348 1.7677875-3.6205158-.0234189.5182266.0266871 1.0139846.1457877 1.5076408z" fill="#4f4c51"/></g><g><path d="m9.0676308 28.9231434c-1.3224354-.2568283-.3201647-.1894417-5.5894127-2.4652214.5564139-1.1494064 1.0356338-2.3230076 1.4361894-3.5510101 1.0575032.5793056 3.4569716 1.5182419 3.645494 1.5823288.3050203.0266323.1680803.0182819.4885836.0281315.1532885 1.3914546.1699407 2.8501014.0191457 4.4057712z" fill="#4f4c51"/></g><g><path d="m10.5241184 21.0856495c1.1799688.4129906 5.6381969 1.9146271 5.7641563 2.0568485-.0012665.012804.0398998.0378952-.0793762.0604076-1.262104.2490959-6.4315414 1.2385998-7.1695719 1.3168869-.5997019-.0129089-.4480562-.0280914-.6388597-.0783291-1.4881215-.607275-2.6667142-1.0841675-3.4868917-1.5368042-.119101-.4936562-.1692071-.9894142-.1457877-1.5076408.0083747-.0106945.0167184-.0214233.0250287-.0321064.1024251-.0540638.1207514-.052599.2284436-.0656204 1.7246037-.1200104 3.5338788-.21451 5.2848773-.2499695.1113586.0075341.114418.0053025.2179813.0363274z" fill="#7c7980"/></g></g></g></g><g><g><g enable-background="new"><g><path d="m9.0676308 28.9231434c-1.3224354-.2568283-.3201647-.1894417-5.5894127-2.4652214.5564139-1.1494064 1.0356338-2.3230076 1.4361894-3.5510101 1.0575032.5793056 3.4569716 1.5182419 3.645494 1.5823288.3050203.0266323.1680803.0182819.4885836.0281315.1532885 1.3914546.1699407 2.8501014.0191457 4.4057712z" fill="#4f4c51"/></g><g><path d="m4.9135752 22.9046593c-.4025688 1.2302532-.8784742 2.4056149-1.4385839 3.5565109-.2161317-.5034637-.3819723-.9777317-.4749913-1.4436359.6572123-1.1321201 1.251296-2.3290348 1.7677875-3.6205158-.0234189.5182266.0266871 1.0139846.1457877 1.5076408z" fill="#34333a"/></g></g></g></g><path d="m12.0631819 21.6172962c-.1363182.0493736-.4480457.1620331-.5839214.1955109-.6646709-.0818558-1.2932491-.1690273-1.867177-.2510242-.3325863.0926132-.8287401.199337-1.3154802.2994938-.0005188-.0073509-.0096607-.0045567-.0187988-.002121-.2845616.0580921-.5665951.1165867-.8180423.1601677.7331281-.2177353 1.4659371-.438858 2.1937928-.5988922.523859.0750427 1.3255138.1746292 1.7975054.2949715.1731367-.0429535.3462753-.0858688.5194139-.1288013.0307969.0101985.0616979.0204752.0927076.0306948z" fill="#4f4c51"/><path d="m11.6202164 21.7688961c-.0425034.0174713-.0930634.0307636-.1371117.0433083-.6697807-.0780487-1.2961206-.1665173-1.8712339-.2486496-.3372326.0905399-.8332939.1971664-1.3134108.2945442.459733-.135519.9116259-.2555065 1.3712482-.3555794.5212793.0801086 1.3357468.183218 1.8042221.3005772.0504923-.0135575.0944224-.0259209.1462861-.0342007z" fill="#34333a"/><path d="m6.9883394 23.8595238c-.1682258 1.2453823-.4789772 2.4949093-.934936 3.7556515-.3272443-.1538925-.6441851-.2996693-.9502296-.438015.0012994-.0022755.0025959-.004591.0038929-.0068855.6645632-.8922234 1.6821637-3.4129143 1.6052494-3.4215298.6727023-.225935 1.0951548-.3782959 1.5389247-.5441818-.3992735.2224178-.8203855.4410362-1.2629014.6549606z" fill="#1e1e1c"/><path d="m6.8910098 23.809248c-.1785188 1.2415447-.4984689 2.4848747-.9619231 3.737051-.2819519-.1312275-.556087-.2564182-.8220201-.3760242.6645632-.8922234 1.6821637-3.4129143 1.6052494-3.4215298.3179388-.1067829.6306534-.214735.9381075-.3237076-.2456002.1295395-.4987669.2576752-.7594137.3842106z" fill="#34333a"/><path d="m12.5488386 28.9579792c-.430006-.0139065-.1959229-.0102024-.8812637-.0101433.1484156-.6734142.249836-1.3379307.3043633-1.9918385.2100114.6382104.4038905 1.3040257.5769004 2.0019818z" fill="#4f4c51"/><path d="m12.5488386 28.9579792c-.1090536-.0035267-.2181063-.0070744-.3271608-.0106201-.0539551-.6864338-.1382008-1.3495293-.2497396-1.9913616.2100114.6382103.4038905 1.3040256.5769004 2.0019817z" fill="#34333a" opacity=".5"/><path d="m17.6975098 28.9454708c-.6634293-.0019932-.2215824-.0034981-1.2632809.0087109-.0051556-1.1224747-.1239719-2.2039223-.353199-3.2390385.5873451.9960651 1.1316147 2.0684738 1.6164799 3.2303276z" fill="#4f4c51"/><path d="m17.6975098 28.9454708c-.1535206-.0004616-.3071098-.0009689-.4607639-.001524-.3103123-1.1459141-.6994209-2.2200203-1.1557159-3.2288036.587345.9960651 1.1316146 2.0684738 1.6164798 3.2303276z" fill="#34333a" opacity=".5"/></g><g><path d="m12.4917278 23.245451c-.136755.0910072-.2860174.2172699-.4284506.291996-.0160398.0179424-.0435333.0293522-.0664396.040781-.0882511-.031435-.0827532-.0272198-.2657852-.0946236 0 0-.0022793-.0016327-.0045729-.0016327-.4559441-.1631241-.9233541-.342535-1.3861647-.5219879-.2016249.0685196-.522397.1305084-.8500347.1794529-.0091591-.0065327-.0137463-.0065327-.0114527.0016117-.1003771.0136242-.1661253.0283203-.5750904.0685196.426158-.1761856.8637819-.3490868 1.3495121-.4420586.5132227.2055378 1.2211914.4599991 1.6450691.6720486.1924516-.0733986.3917838-.1337528.5934096-.194107z" fill="#4f4c51"/><path d="m10.2532492 22.8898525c.4490633.1794319 1.0470734.3963795 1.4732304.5921192-.4559441-.1631241-.9233541-.342535-1.3861647-.5219879-.2016249.0685196-.522397.1305084-.8500347.1794529-.0091591-.0065327-.0137463-.0065327-.0114527.0016117-.0481205.0065327-.0985193.014677-.1466398.0212078.2932643-.1109123.5957031-.2088031.9210615-.2724037z" fill="#25242a"/></g><path d="m6.5099726 23.6638012-1.5963974-.7591419-.1605945-1.3135929c.2840386.8497886.9109759 1.5189876 1.7569919 2.0727348z" fill="#fff" opacity=".3"/><path d="m16.2078514 23.2026482c-.7393646.1468143-1.4815426.2903633-2.2321453.4322815 1.6428461-.2682819 1.8736963-.6481533.6015968-1.1467438.5060415.1810455 1.0345612.3719063 1.5799465.5758114.0337334.0146751.120882.066885.132122.0782948-.0028152.0130443.039362.0375365-.08152.0603561z" fill="#fff" opacity=".3"/><path d="m10.1664457 28.9397068c-.2558346 0-.5144663-.0032654-.7703009-.0048981-.3345346-.0099049-.3838787.0010548-.8883524-.1402855.222084-1.7650051.5397587-4.2770901.5397587-4.2770901z" fill="#34333a"/><g fill="#25242a"><path d="m10.1664457 28.9397068c-.2530203 0-.5060415-.0032654-.7590446-.0048981l-.3598499-4.4173756z"/><path d="m3.5203378 26.364727c-.0140529.0326366-.0268831.0595722-.04375.0921879-.011256-.0260849-.0215736-.0488949-.0328124-.0749989.0281058-.0065326.0512707-.012289.0765624-.017189z"/><path d="m19.0950069 28.887516c-.0140514.0114098-.0281048.0228195-.0421581.0326157-.0337334.0049-.0646706.009798-.0984039.014677-.4188766.0032654-.8377514.0081635-1.256628.0081635v.0032463c-.3173771 0-.5034466-.0014191-1.2622547.0081635 0-.0016327 0-.0016327 0-.0032654-1.2903776.0065308-2.5863667.0081635-3.8879833.0016327v.0048981c-.1586847-.0102367.2286768.0048695-2.3811331-.0179405-.2558346 0-.5144663-.0032654-.7703009-.0048981-.3735294-.0110607-.3524818.0023804-.9389524-.153347-.3933744-.152092-.8540058-.445858-2.4036279-1.1695824v.0032654c-.3261166-.153326-.6437907-.3001614-.9502091-.4371605 0-.0016327 0-.0016327 0-.0032654-.5819335-.2642784-1.1245055-.5007992-1.6249189-.7161331.0140529-.0309849.0309198-.0636005.0449898-.0946045.1321213-.0244732.2642596-.0440273.3907528-.0554562.7538011-.075037 1.6666453-.1566944 2.4148839.0375137.0309196.0081654.0646534.0163288.0955734.0261059.0084419.0032463.019681.0065117.0281229.0097771.6662683.2022724 1.0879579.598671 1.6502109.8890343.6990547.3613777 1.5800924.5248623 2.3670797.5333977 1.6298656.011137.8185205-1.0120964 1.6923866-1.3212757.2080307-.0734177.4666624-.0799294.7112417-.0864601 1.1273193-.0358829 2.4205112-.2153339 2.9124823-.8042068.5566244-.6688023-.2249146-1.4289646-.491971-2.1548557-.0056276-.0179405-.0140696-.0342693-.0168667-.0521908v-.0016327c.3120461-.0587406.6212788-.1207085.9305286-.1810837.0730953-.0130424.0871468-.0277195.0871468-.040781 1.1694792 1.6818121 2.1281298 3.5773047 2.8000086 5.7256487z" opacity=".2"/></g></g></g></svg>