<svg fill="none" height="24" viewBox="0 0 24 24" width="24" xmlns="http://www.w3.org/2000/svg" xmlns:xlink="http://www.w3.org/1999/xlink"><linearGradient id="paint0_linear_4512_4741" gradientUnits="userSpaceOnUse" x1="11" x2="11" y1="2" y2="22"><stop offset="0" stop-color="#f7d39f"/><stop offset="1" stop-color="#6798fc"/></linearGradient><g clip-rule="evenodd" fill="url(#paint0_linear_4512_4741)" fill-rule="evenodd"><path d="m4.92893 17.6569c-.39052.3905-.39052 1.0236 0 1.4142 3.90524 3.9052 10.23687 3.9052 14.14217 0 3.9052-3.9053 3.9052-10.23692 0-14.14217-3.9053-3.90524-10.23693-3.90524-14.14217 0-1.95356 1.95356-2.93006 4.51635-2.92893 7.07547l-.00002 1.9956c0 .5523.44771 1 .99999 1 .55229 0 1.00001-.4477 1.00001-1l.00002-1.9956c-.00101-2.0502.77985-4.09796 2.34314-5.66125 3.1242-3.1242 8.18956-3.1242 11.31376 0 3.1241 3.12419 3.1241 8.18955 0 11.31375-3.1242 3.1241-8.18956 3.1241-11.31376 0-.39052-.3906-1.02369-.3906-1.41421 0z"/><path d="m3 12.5858-1.29289-1.2929c-.39053-.3905-1.023692-.3905-1.414216 0-.3905248.3905-.3905255 1.0237-.000001 1.4142l1.999997 2c.18754.1875.44187.2929.70708.2929.26522 0 .5196-.1054.70713-.2929l2-2c.39053-.3905.39053-1.0237.00001-1.4142-.39053-.3905-1.02369-.3905-1.41422 0z"/><path d="m11 7c-.5523 0-1 .44772-1 1v5c0 .5523.4477 1 1 1h5c.5523 0 1-.4477 1-1s-.4477-1-1-1h-4v-4c0-.55228-.4477-1-1-1z"/></g></svg>