<svg version="1.1" xmlns="http://www.w3.org/2000/svg" style="display: block;" viewBox="0 0 2048 2048" width="512" height="512">
<path transform="translate(0,0)" fill="rgb(255,255,255)" d="M 996.597 287.69 C 1403.62 272.719 1745.68 590.585 1760.57 997.607 C 1775.45 1404.63 1457.51 1746.63 1050.48 1761.42 C 643.583 1776.21 301.713 1458.39 286.835 1051.49 C 271.957 644.596 589.704 302.657 996.597 287.69 z M 1250.47 1060.24 C 1332.75 1054.03 1394.51 982.435 1388.56 900.137 C 1382.61 817.839 1311.2 755.866 1228.88 761.563 C 1146.21 767.285 1083.91 839.073 1089.88 921.729 C 1095.86 1004.38 1167.84 1066.47 1250.47 1060.24 z M 813.499 1060.15 C 895.761 1057.7 960.567 989.213 958.482 906.942 C 956.397 824.67 888.206 759.558 805.926 761.273 C 723.121 762.999 657.503 831.72 659.601 914.515 C 661.699 997.311 730.714 1062.62 813.499 1060.15 z M 1193.97 1217.61 C 1195.12 1260.91 1194.41 1304.35 1194.42 1347.66 C 1194.42 1367.85 1196.52 1389.22 1194.77 1409.22 C 1223.52 1409.24 1253.03 1407.99 1281.67 1410.13 L 1281.53 1408.78 C 1279.73 1389.97 1281.92 1370.88 1280.76 1352.01 C 1277.91 1305.47 1250.02 1261.74 1214.8 1232.45 C 1209.73 1228.24 1200.17 1219.37 1193.97 1217.61 z M 853.368 1218.83 C 812.569 1246.38 782.753 1281.42 773.286 1330.96 C 771.331 1341.19 767.913 1400.17 770.578 1408.49 L 772.75 1409.21 C 800.907 1409.11 829.064 1409.2 857.219 1409.47 C 855.583 1392.06 856.594 1373.92 856.596 1356.41 L 856.413 1261.65 C 856.373 1251.12 858.066 1228.97 855.091 1219.93 L 853.368 1218.83 z M 1005.97 1172.4 C 991.663 1173.58 977.186 1175.39 963.076 1178.01 C 954.161 1179.67 945.195 1182.18 936.215 1183.29 C 936.872 1230.19 937.046 1277.1 936.739 1324 C 936.808 1352.06 938.186 1380.61 936.503 1408.62 C 972.586 1410.52 1009.13 1409.26 1045.28 1409.14 L 1113.34 1409.27 C 1110.97 1380.23 1112.78 1347.65 1112.77 1318.09 C 1112.74 1273.09 1111.55 1227.63 1113.46 1182.68 C 1076.88 1175.2 1043.38 1170.93 1005.97 1172.4 z"/>
<path transform="translate(0,0)" fill="rgb(255,255,255)" d="M 1685.14 1485.72 C 1686.45 1486.39 1686.95 1486.9 1687.71 1488.17 C 1697.76 1504.97 1706.79 1522.53 1716.42 1539.59 L 1772.13 1638.22 C 1783.94 1659.43 1799.5 1680.46 1808.15 1703.11 C 1811.11 1710.87 1810.18 1718.55 1806.6 1726.05 C 1803.64 1732.26 1736.53 1798.25 1727.55 1805.22 C 1725.3 1806.98 1722.98 1808.02 1720.24 1808.84 C 1715.19 1810.36 1710.27 1810.27 1705.19 1808.96 C 1686.94 1804.25 1659.28 1784.73 1641.43 1775.25 C 1607.01 1754.73 1571.09 1736.22 1535.83 1717.16 C 1517.28 1707.13 1499.5 1696.1 1480.61 1686.64 C 1491.47 1679.13 1501.39 1668.68 1511.73 1660.29 C 1549.91 1629.29 1587.02 1599.53 1620 1562.65 C 1642.34 1537.67 1662.25 1510.04 1685.14 1485.72 z"/>
<path transform="translate(0,0)" fill="rgb(255,255,255)" d="M 1706.53 238.206 C 1714.56 237.604 1720.72 239.338 1727.51 243.614 C 1736.08 249.008 1796.87 308.297 1803.36 316.676 C 1807.18 321.603 1810.24 327.121 1811.38 333.306 C 1812.41 338.916 1811.19 344.745 1808.95 349.927 C 1803.82 361.815 1795.78 373.644 1789.27 384.878 C 1772.31 413.687 1755.09 442.333 1737.59 470.814 C 1719.06 500.99 1702.43 533.139 1682.24 562.213 C 1669.48 545.33 1656.39 528.691 1642.99 512.308 C 1593.92 454.742 1544.68 411.249 1484.12 366.338 C 1503.29 353.348 1523.04 342.626 1542.92 330.89 L 1633.51 277.962 C 1650.39 268.25 1690.22 241.861 1706.53 238.206 z"/>
<path transform="translate(0,0)" fill="rgb(255,255,255)" d="M 366.217 1487.42 C 372.931 1492.17 391.363 1519.1 398.366 1527.98 C 407.359 1539.37 416.735 1550.64 426.242 1561.62 C 447.762 1586.02 470.793 1609.04 495.198 1630.55 C 504.709 1639.02 559.112 1679.66 561.533 1684.62 C 557.514 1690.47 416.078 1770.75 401.381 1778.97 C 389.795 1786.03 355.548 1806.98 344.585 1810.08 C 338.03 1811.94 330.559 1811.81 324.562 1808.27 C 315.892 1803.16 290.907 1775.83 282.271 1767.34 C 270.744 1756 257.76 1745.31 247.32 1733 C 243.706 1728.74 239.545 1723.36 238.259 1717.87 C 236.795 1711.6 240.118 1702.95 242.665 1697.16 C 251.849 1676.3 265.389 1656.43 276.846 1636.68 C 297.795 1600.25 319.05 1564 340.61 1527.94 C 348.88 1514.26 358.038 1501.15 366.217 1487.42 z"/>
<path transform="translate(0,0)" fill="rgb(255,255,255)" d="M 330.153 238.189 C 335.75 237.55 340.36 238.516 345.498 240.864 C 360.346 247.65 374.638 257.164 388.739 265.401 L 464.762 309.766 C 497.069 328.738 531.638 345.833 562.858 366.329 C 553.04 372.951 543.74 380.673 534.37 387.927 C 508.532 407.929 483.185 429.202 460.05 452.311 C 444.185 468.159 429.301 485.164 414.136 501.688 C 405.557 511.119 397.363 520.892 389.572 530.982 C 382.238 540.608 375.51 550.758 367.482 559.827 L 365.782 558.996 C 357.549 546.524 350.305 533.306 342.675 520.455 L 302.448 453.348 L 259.626 382.655 C 252.137 370.23 240.756 356.073 237.059 342.175 C 235.559 336.532 237.349 328.233 240.193 323.232 C 243.597 317.247 313.393 248.083 321.796 241.725 C 324.258 239.862 327.226 239.03 330.153 238.189 z"/>
<path transform="translate(0,0)" fill="rgb(255,255,255)" d="M 889.811 1814.21 C 961.045 1828 1042.72 1828.71 1114.81 1820.85 C 1129.69 1819.23 1145.8 1818.04 1160.19 1813.78 C 1145.89 1861.93 1132.05 1910.22 1118.67 1958.63 C 1112.86 1979.08 1107.13 2007.38 1099.05 2025.92 C 1096.31 2032.22 1090.82 2037.74 1084.91 2041.12 C 1079.43 2044.25 1073.33 2045.36 1067.71 2048 L 972.453 2048 C 963.697 2042.76 954.293 2037.92 949.221 2028.59 C 942.066 2015.44 935.854 1984.23 931.387 1968.09 C 917.724 1919.52 904.489 1870.83 891.686 1822.02 C 891.029 1819.43 890.405 1816.82 889.811 1814.21 z"/>
<path transform="translate(0,0)" fill="rgb(255,255,255)" d="M 976.034 0 L 1069.62 0 C 1074.07 2.80083 1079.35 4.17272 1083.93 6.94147 C 1089.36 10.2313 1094.49 15.2384 1097.19 21.0665 C 1105.25 38.4641 1113.01 73.2317 1118.69 92.9294 C 1132.36 140.289 1146.91 187.074 1158.96 234.902 L 1155.15 233.82 C 1139.56 229.427 1121.97 228.252 1105.86 226.636 C 1058.44 221.876 1008.87 220.44 961.267 223.901 C 936.335 225.713 911.429 229.352 886.692 232.891 C 902.111 186.616 914.887 139.294 928.195 92.3616 C 933.273 74.4506 937.822 56.3063 943.521 38.5841 C 951.319 14.3307 953.797 11.4164 976.034 0 z"/>
<path transform="translate(0,0)" fill="rgb(255,255,255)" d="M 1816.45 889.796 C 1877.14 908.352 1938.73 923.907 1999.47 942.321 C 2026.07 950.385 2035.31 960.266 2048 983.919 L 2048 1063.91 C 2043.73 1071.41 2041.69 1079.51 2035.96 1086.29 C 2029.46 1093.98 2020.24 1099.46 2011.03 1103.28 C 2001.15 1107.37 1990.32 1109.84 1980.05 1112.76 L 1925.98 1128.16 C 1898.4 1136.28 1871.62 1145.79 1843.69 1152.92 C 1835.21 1155.08 1826.25 1158.03 1817.58 1158.96 C 1816.56 1156.56 1816.68 1154.6 1816.88 1152.02 C 1817.66 1141.99 1819.62 1131.92 1820.81 1121.92 C 1822.92 1103.78 1824.41 1085.57 1825.25 1067.33 C 1826.8 1031.3 1826.62 994.192 1823.79 958.25 C 1821.99 935.395 1818.66 912.624 1816.45 889.796 z"/>
<path transform="translate(0,0)" fill="rgb(255,255,255)" d="M 0 984.262 C 7.77115 970.998 13.1873 958.058 27.0469 949.608 C 39.4202 942.065 62.1165 938.324 76.5031 934.132 C 120.458 921.191 164.557 908.745 208.792 896.798 C 216.273 894.853 223.84 893.254 231.468 892.008 C 215.999 975.151 219.294 1075.6 230.821 1159.28 C 216.206 1154.58 201.31 1150.88 186.558 1146.65 C 155.026 1137.47 123.435 1128.48 91.7892 1119.7 C 71.9361 1114.12 42.8445 1108.69 25.4812 1098.62 C 15.8504 1093.03 9.73057 1084.18 4.73766 1074.54 C 3.15904 1071.49 1.84444 1068 0 1065.14 L 0 984.262 z"/>
</svg>